<?xml version="1.0" standalone="no"?>
<!DOCTYPE svg PUBLIC "-//W3C//DTD SVG 20010904//EN"
 "http://www.w3.org/TR/2001/REC-SVG-20010904/DTD/svg10.dtd">
<svg version="1.0" xmlns="http://www.w3.org/2000/svg"
 width="16.000000pt" height="16.000000pt" viewBox="0 0 16.000000 16.000000"
 preserveAspectRatio="xMidYMid meet">
<metadata>
Created by potrace 1.11, written by Peter Selinger 2001-2013
</metadata>
<g transform="translate(0.000000,16.000000) scale(0.001990,-0.001990)"
fill="#000000" stroke="none">
<path d="M3796 6389 c-452 -66 -789 -403 -854 -854 -9 -68 -9 -2734 1 -2810
51 -399 303 -702 667 -803 41 -12 91 -24 110 -27 19 -4 46 -9 60 -11 50 -10
306 -13 345 -4 22 5 54 11 70 13 17 3 59 15 95 27 256 87 478 282 595 525 91
186 107 268 109 547 l2 188 -318 -1 c-293 0 -318 -1 -319 -17 0 -9 -2 -84 -4
-167 -4 -161 -16 -227 -58 -298 -69 -117 -175 -176 -327 -183 -201 -8 -314 70
-372 256 l-23 75 0 1275 c0 1219 1 1278 19 1345 55 203 137 276 324 291 177
14 301 -57 384 -218 40 -77 50 -136 53 -294 1 -78 5 -146 8 -151 3 -4 146 -8
319 -8 l313 0 -1 175 c0 96 -4 200 -8 230 -48 377 -274 689 -600 827 -66 28
-171 60 -226 69 -60 10 -302 12 -364 3z"/>
<path d="M310 4135 l0 -2226 553 4 c303 2 570 7 592 11 78 14 250 58 259 67 6
5 16 9 24 9 28 0 178 82 247 135 227 174 345 427 381 815 9 99 9 2347 0 2425
-42 367 -162 605 -389 776 -127 96 -261 151 -477 195 -19 4 -295 9 -612 11
l-578 5 0 -2227z m1131 1602 c175 -57 263 -183 287 -412 8 -82 8 -2313 -1
-2397 -14 -134 -63 -245 -138 -312 -90 -82 -191 -106 -451 -106 l-188 0 0
1626 0 1627 223 -6 c157 -4 235 -10 268 -20z"/>
<path d="M5520 4135 l0 -2225 319 0 319 0 0 933 c1 512 1 940 1 950 1 16 17
17 190 17 l189 0 37 -117 c20 -65 59 -189 86 -275 120 -385 154 -492 199 -638
27 -85 70 -222 96 -305 26 -82 49 -155 50 -160 1 -6 25 -85 53 -175 29 -91 57
-180 62 -197 l11 -33 338 0 338 0 -130 382 c-71 211 -149 442 -173 513 -24 72
-120 356 -213 632 l-170 502 66 43 c162 105 271 225 347 381 99 206 135 408
130 737 -2 118 -5 226 -8 240 -3 14 -9 48 -13 75 -4 28 -8 55 -10 60 -1 6 -4
27 -8 47 -18 114 -108 333 -179 438 -104 153 -281 280 -473 340 -173 54 -233
58 -866 59 l-588 2 0 -2226z m1185 1603 c119 -35 203 -101 254 -200 54 -107
65 -183 65 -448 1 -312 -9 -388 -66 -502 -51 -104 -129 -165 -250 -197 -61
-16 -112 -19 -310 -20 l-238 -2 -1 28 c0 15 -1 329 -2 697 l-2 668 250 -5
c175 -3 265 -9 300 -19z"/>
</g>
</svg>
